<?xml version="1.0" encoding="utf-8" ?>
<svg xmlns="http://www.w3.org/2000/svg" xmlns:xlink="http://www.w3.org/1999/xlink" width="22" height="22">
	<path fill="white" fill-opacity="0.3882353" d="M11.293777 0L10.720212 0C10.419833 0 10.148775 0.18021031 10.032544 0.45718908L9.7075052 1.22004C9.122736 2.5706112 8.5993376 3.6570902 8.1393042 4.4769239C7.609695 5.4207506 7.0964766 6.1422439 6.6072798 6.6395359C6.1156826 7.1307592 5.3933773 7.6466494 4.4464159 8.1748257C3.4735312 8.7174606 2.144443 9.3346882 0.46311712 10.023287C0.18298684 10.138016 0 10.410699 0 10.713412L0 11.286588C0 11.588778 0.1823635 11.861098 0.46178877 11.976168L1.2089783 12.288959C2.5335255 12.853079 3.6087806 13.365778 4.4324265 13.825174C5.3810234 14.354262 6.1094623 14.871428 6.61622 15.3694C7.0964766 15.857757 7.609695 16.579248 8.1393042 17.523075C8.6829805 18.49197 9.3151579 19.833286 10.032544 21.54281C10.148775 21.81979 10.419833 22 10.720212 22L11.293777 22C11.5954 22 11.867324 21.818314 11.982761 21.539656C12.69053 19.831146 13.317651 18.490847 13.860696 17.523075C14.389309 16.581026 14.905703 15.861169 15.402221 15.364989C15.904527 14.871428 16.632965 14.354262 17.581564 13.825174C18.555481 13.281962 19.87604 12.664445 21.539551 11.975615C21.818264 11.860204 22 11.588251 22 11.286588L22 10.713412C22 10.410699 21.817013 10.138016 21.536882 10.023287C19.855556 9.3346882 18.526468 8.7174606 17.553585 8.1748257C16.608286 7.6475768 15.892129 7.1329875 15.40671 6.6395359C14.905703 6.1388316 14.389309 5.4189749 13.860696 4.4769239C13.317651 3.5091541 12.69053 2.1688533 11.982761 0.46034384C11.867324 0.18168622 11.5954 0 11.293777 0Z"/>
</svg>
