<?xml version="1.0" encoding="utf-8" ?>
<svg xmlns="http://www.w3.org/2000/svg" xmlns:xlink="http://www.w3.org/1999/xlink" width="22" height="22">
	<path fill="white" d="M0 3.1777778C0 1.4227396 1.4227396 0 3.1777778 0L6.5999999 0C8.3550386 0 9.7777777 1.4227396 9.7777777 3.1777778L9.7777777 6.5999999C9.7777777 8.3550386 8.3550386 9.7777777 6.5999999 9.7777777L3.1777778 9.7777777C1.4227396 9.7777777 0 8.3550386 0 6.5999999L0 3.1777778ZM0 15.4C0 13.644961 1.4227396 12.222222 3.1777778 12.222222L6.5999999 12.222222C8.3550386 12.222222 9.7777777 13.644961 9.7777777 15.4L9.7777777 18.822222C9.7777777 20.577261 8.3550386 22 6.5999999 22L3.1777778 22C1.4227396 22 0 20.577261 0 18.822222L0 15.4L0 15.4ZM12.222222 3.1777778C12.222222 1.4227396 13.644961 0 15.4 0L18.822222 0C19.665022 0 20.473301 0.33480063 21.06925 0.93074954C21.665199 1.5266985 22 2.3349788 22 3.1777778L22 6.5999999C22 7.4427991 21.665199 8.2510796 21.06925 8.8470278C20.473301 9.442977 19.665022 9.7777777 18.822222 9.7777777L15.4 9.7777777C13.644961 9.7777777 12.222222 8.3550386 12.222222 6.5999999L12.222222 3.1777778ZM17.111111 12.222222C17.786125 12.222222 18.333334 12.76943 18.333334 13.444445L18.333334 15.888889L20.777779 15.888889C21.452793 15.888889 22 16.436096 22 17.111111C22 17.786125 21.452793 18.333334 20.777779 18.333334L18.333334 18.333334L18.333334 20.777779C18.333334 21.452793 17.786125 22 17.111111 22C16.436096 22 15.888889 21.452793 15.888889 20.777779L15.888889 18.333334L13.444445 18.333334C12.76943 18.333334 12.222222 17.786125 12.222222 17.111111C12.222222 16.436096 12.76943 15.888889 13.444445 15.888889L15.888889 15.888889L15.888889 13.444445C15.888889 12.76943 16.436096 12.222222 17.111111 12.222222Z"/>
</svg>
