<?xml version="1.0" encoding="utf-8" ?>
<svg xmlns="http://www.w3.org/2000/svg" xmlns:xlink="http://www.w3.org/1999/xlink" width="23" height="26">
	<path fill="white" transform="translate(0.0336914 1.02356)" d="M9.7806301 4.4450016C13.438642 6.0696468 15.712785 2.1090932 15.579931 0.31465015C11.14501 -1.0235682 9.7322884 2.2019057 9.7806301 4.4450016ZM20.379976 9.4540396C20.388752 9.4767046 20.39753 9.4994612 20.406305 9.5221262C20.397892 9.4998226 20.389839 9.4796906 20.379568 9.45327C19.7272 7.7867427 18.424541 6.4131479 16.721054 5.8148866C14.871844 5.1661367 12.944279 5.53444 11.114026 6.0396872C10.5 6.2430854 10.5 6.2430854 9.7334185 6.0078378C9.293725 5.9346385 8.8595514 5.7709579 8.4216223 5.68016C7.7684846 5.5454335 7.1032667 5.4612408 6.4358325 5.4604716C5.1496878 5.4604716 3.8803728 5.8013144 2.8219693 6.5456576C0.76664436 7.9918184 -0.033706822 10.515067 0.001083188 12.939419C0.03913052 15.564413 0.9280628 18.07115 2.4236259 20.212206C3.0837314 21.157507 3.8426423 22.063993 4.7806606 22.74604C5.6922584 23.408678 6.7103977 23.719164 7.8157158 23.877281C8.2850418 23.945051 8.7628727 23.946861 9.2307053 23.870359C9.6392727 23.803764 10.021873 23.631308 10.427138 23.562813C10.733235 23.511194 11.164876 23.7521 11.46102 23.81797C11.965906 23.931479 12.485403 23.954914 12.999789 23.896326C14.881978 23.681795 16.373154 22.832766 17.611704 21.409317C20.33564 18.278803 21.959007 13.486423 20.379976 9.4540396Z"/>
</svg>
