<?xml version="1.0" encoding="utf-8" ?>
<svg xmlns="http://www.w3.org/2000/svg" xmlns:xlink="http://www.w3.org/1999/xlink" width="24" height="23">
	<path fill="white" fill-opacity="0.3882353" d="M23.934151 6.0658951C24 6.1318049 24 6.2378702 24 6.4499998L24 16.5C24 19.3284 24 20.742599 23.1213 21.6213C22.242599 22.5 20.8284 22.5 18 22.5L6 22.5C3.1715701 22.5 1.757355 22.5 0.878685 21.6213C0.067591153 20.810192 0.0051993197 19.542801 0.00039994766 17.128004L0 6.4499998C0 6.2378702 0 6.1318049 0.065894999 6.0658951C0.12082 6.0109825 0.20363042 6.0018306 0.35246861 6.0003052L23.549999 6C23.7621 6 23.868151 6 23.934151 6.0658951ZM15.75 10.224359C15.183554 10.224359 14.724359 10.683554 14.724359 11.25C14.724359 11.972483 14.437314 12.665502 13.926385 13.176539C13.415502 13.687314 12.722483 13.974359 12 13.974359C11.277517 13.974359 10.584498 13.687314 10.073461 13.176385C9.5626793 12.665506 9.2756414 11.972495 9.2756414 11.25C9.2756414 10.683554 8.8164463 10.224359 8.25 10.224359C7.6835542 10.224359 7.224359 10.683554 7.224359 11.25C7.224359 12.516482 7.7274747 13.731178 8.6229925 14.626868C9.518836 15.52252 10.733532 16.02564 12 16.02564C13.266468 16.02564 14.481164 15.52252 15.376861 14.627015C16.27252 13.731164 16.77564 12.516468 16.77564 11.25C16.77564 10.683554 16.316446 10.224359 15.75 10.224359ZM1.08639 4.5C0.62402999 4.5 0.392865 4.5 0.335325 4.3611002C0.277785 4.2222152 0.441255 4.0587449 0.76819497 3.7318051L2.742645 1.757355C3.609735 0.89026499 4.0432801 0.45671999 4.5945902 0.22836C5.1458998 0 5.7590251 0 6.9852748 0L17.01465 0C18.2409 0 18.854099 0 19.40535 0.22836C19.956751 0.45671999 20.390249 0.89026499 21.257401 1.757355L23.23185 3.7318051C23.558701 4.0587449 23.7222 4.2222152 23.664749 4.3611002C23.607149 4.5 23.375999 4.5 22.913549 4.5L1.08639 4.5Z"/>
</svg>
