<?xml version="1.0" encoding="utf-8" ?>
<svg xmlns="http://www.w3.org/2000/svg" xmlns:xlink="http://www.w3.org/1999/xlink" width="22" height="22">
	<path fill="white" fill-opacity="0.3882353" d="M14.308345 8.1490107e-16C16.982901 9.7867044e-16 17.952759 0.27847683 18.930536 0.8013981C19.908316 1.3243194 20.67568 2.0916851 21.198603 3.0694628C21.721523 4.0472407 22 5.0170994 22 7.6916556L22 14.308345C22 16.982901 21.721523 17.952759 21.198603 18.930536C20.67568 19.908316 19.908316 20.67568 18.930536 21.198603C17.952759 21.721523 16.982901 22 14.308345 22L7.6916556 22C5.0170994 22 4.0472407 21.721523 3.0694628 21.198603C2.0916851 20.67568 1.3243194 19.908316 0.8013981 18.930536C0.27847683 17.952759 -3.5527137e-15 16.982901 -3.5527137e-15 14.308345L0 7.6916556C0 5.0170994 0.27847683 4.0472407 0.8013981 3.0694628C1.3243194 2.0916851 2.0916851 1.3243194 3.0694628 0.8013981C4.0472407 0.27847683 5.0170994 -1.0388557e-15 7.6916556 -7.1131704e-16L14.308345 8.1490107e-16ZM14.246718 4.8000002C13.799636 4.8000002 13.437112 5.1622987 13.437112 5.6096063L13.437112 7.1208711C13.437112 8.8158712 12.262959 9.1720982 11.278162 9.1720982C10.293366 9.1720982 9.1192122 8.8158712 9.1192122 7.1208711L9.1192122 5.6096063C9.1192122 5.1622987 8.7566891 4.8000002 8.3096066 4.8000002C7.8625236 4.8000002 7.5 5.1622987 7.5 5.6096063L7.5 7.1208711C7.5 9.3504362 8.9831533 10.791086 11.278162 10.791086C13.573396 10.791086 15.056325 9.3504362 15.056325 7.1208711L15.056325 5.6096063C15.056325 5.1622987 14.693801 4.8000002 14.246718 4.8000002Z" fill-rule="evenodd"/>
</svg>
