<?xml version="1.0" encoding="utf-8" ?>
<svg xmlns="http://www.w3.org/2000/svg" xmlns:xlink="http://www.w3.org/1999/xlink" width="22" height="22">
	<path fill="#2BFF94" d="M11 0C17.075132 0 22 4.9248676 22 11C22 17.075132 17.075132 22 11 22C4.9248676 22 0 17.075132 0 11C0 4.9248676 4.9248676 0 11 0ZM12.040614 6.5999999L9.9748793 6.5999999C9.0696144 6.5999999 8.5826416 6.6940389 8.075037 6.9655085C7.599268 7.2199526 7.2199526 7.599268 6.9655085 8.075037C6.6940389 8.5826416 6.5999999 9.0696144 6.5999999 9.9748793L6.5999999 12.040614C6.5999999 12.945879 6.6940389 13.432852 6.9655085 13.940456C7.2199526 14.416225 7.599268 14.79554 8.075037 15.049984C8.5826416 15.321454 9.0696144 15.415493 9.9748793 15.415493L12.040614 15.415493C12.945879 15.415493 13.432852 15.321454 13.940456 15.049984C14.416225 14.79554 14.79554 14.416225 15.049984 13.940456C15.321454 13.432852 15.415493 12.945879 15.415493 12.040614L15.415493 9.9748793C15.415493 9.0696144 15.321454 8.5826416 15.049984 8.075037C14.79554 7.599268 14.416225 7.2199526 13.940456 6.9655085C13.432852 6.6940389 12.945879 6.5999999 12.040614 6.5999999ZM12.05421 8.5830984L12.067684 8.5830984C12.398554 8.5839605 12.618631 8.6000748 12.765885 8.6285105C12.862122 8.6470947 12.918719 8.6679649 13.005229 8.7142315C13.135406 8.7838507 13.231642 8.8800859 13.301262 9.0102644C13.347528 9.0967731 13.368399 9.1533709 13.386983 9.249608C13.416187 9.4008417 13.432394 9.6288881 13.432394 9.9748793L13.432394 12.040614C13.432394 12.386605 13.416187 12.614652 13.386983 12.765885C13.368399 12.862122 13.347528 12.918719 13.301262 13.005229C13.231642 13.135406 13.135406 13.231642 13.005229 13.301262C12.918719 13.347528 12.862122 13.368399 12.765885 13.386983C12.614652 13.416187 12.386605 13.432394 12.040614 13.432394L9.9748793 13.432394C9.6288881 13.432394 9.4008417 13.416187 9.249608 13.386983C9.1533709 13.368399 9.0967731 13.347528 9.0102644 13.301262C8.8800859 13.231642 8.7838507 13.135406 8.7142315 13.005229C8.6679649 12.918719 8.6470947 12.862122 8.6285105 12.765885C8.5996904 12.616641 8.5835276 12.392592 8.5830984 12.05421L8.5830984 9.9612827C8.5835276 9.6229 8.5996904 9.3988514 8.6285105 9.249608C8.6470947 9.1533709 8.6679649 9.0967731 8.7142315 9.0102644C8.7838507 8.8800859 8.8800859 8.7838507 9.0102644 8.7142315C9.0967731 8.6679649 9.1533709 8.6470947 9.249608 8.6285105C9.3988514 8.5996904 9.6229 8.5835276 9.9612827 8.5830984L12.05421 8.5830984Z"/>
</svg>
