<?xml version="1.0" encoding="utf-8" ?>
<svg xmlns="http://www.w3.org/2000/svg" xmlns:xlink="http://www.w3.org/1999/xlink" width="19" height="24">
	<path fill="white" d="M15.833333 -1.4055754e-17C16.45784 3.8611745e-17 17.01786 0.14368287 17.486998 0.40464967C17.956133 0.66561651 18.334383 1.0438672 18.59535 1.513003C18.823696 1.9234968 18.962246 2.4035745 18.993317 2.9355509L19 3.1666667L19 22.247864C19 22.501148 18.8689 22.736309 18.653469 22.869455C18.438038 23.002602 18.16897 23.014732 17.94243 22.901463L15.346154 21.603325L12.749891 22.901463C12.54415 23.004356 12.302003 23.004356 12.096262 22.901463L9.5 21.603325L6.9037375 22.901463C6.6979971 23.004356 6.4558492 23.004356 6.2501082 22.901463L3.6538463 21.603325L1.0575838 22.901463C0.83104539 23.014732 0.56202 23.002602 0.3465746 22.869455C0.13114385 22.736309 0 22.501148 0 22.247864L0 3.1666667C-5.6069267e-17 2.5421598 0.14368287 1.9821389 0.40464967 1.513003C0.66561651 1.0438672 1.0438672 0.66561651 1.513003 0.40464967C1.9821389 0.14368287 2.5421598 5.0015845e-16 3.1666667 4.2367844e-16L15.833333 -1.4055754e-17ZM13.777778 10.880342L5.2222223 10.880342C4.6699376 10.880342 4.2222223 11.328057 4.2222223 11.880342L4.2222223 11.991453C4.2222223 12.543737 4.6699376 12.991453 5.2222223 12.991453L13.777778 12.991453C14.330063 12.991453 14.777778 12.543737 14.777778 11.991453L14.777778 11.880342C14.777778 11.328057 14.330063 10.880342 13.777778 10.880342ZM13.777778 6.6581197L5.2222223 6.6581197C4.6699376 6.6581197 4.2222223 7.105835 4.2222223 7.6581197L4.2222223 7.7692308C4.2222223 8.3215151 4.6699376 8.7692308 5.2222223 8.7692308L13.777778 8.7692308C14.330063 8.7692308 14.777778 8.3215151 14.777778 7.7692308L14.777778 7.6581197C14.777778 7.105835 14.330063 6.6581197 13.777778 6.6581197Z" fill-rule="evenodd"/>
</svg>
