<?xml version="1.0" encoding="UTF-8"?>
<svg width="24" height="24" viewBox="0 0 24 24" fill="white" xmlns="http://www.w3.org/2000/svg">
  <path fill="white" d="M12 22C6.477 22 2 17.523 2 12S6.477 2 12 2s10 4.477 10 10-4.477 10-10 10zm0-2a8 8 0 1 0 0-16 8 8 0 0 0 0 16zm0-3a5 5 0 1 1 0-10 5 5 0 0 1 0 10zm0-2a3 3 0 1 0 0-6 3 3 0 0 0 0 6z"/>
  <path fill="white" d="M12 7V5M17 12h2M12 19v-2M5 12h2M7.05 7.05L8.464 8.464M16.95 7.05L15.536 8.464M16.95 16.95l-1.414-1.414M7.05 16.95l1.414-1.414"/>
</svg>
