<?xml version="1.0" encoding="utf-8" ?>
<svg xmlns="http://www.w3.org/2000/svg" xmlns:xlink="http://www.w3.org/1999/xlink" width="22" height="22">
	<path fill="#F2FF45" d="M11 0C17.075132 0 22 4.9248676 22 11C22 17.075132 17.075132 22 11 22C4.9248676 22 0 17.075132 0 11C0 4.9248676 4.9248676 0 11 0ZM6.6623335 7.8581252L4.7180834 7.8581252C4.6410832 7.8581252 4.5801249 7.8805833 4.5352082 7.9254999C4.4582086 8.0217505 4.4517918 8.118 4.5159583 8.2142496L6.3639584 11.207625C6.4024582 11.265375 6.420104 11.331146 6.4168959 11.404938C6.4136877 11.478729 6.3928332 11.5445 6.3543334 11.60225C6.2901669 11.692083 6.208354 11.805979 6.1088958 11.943937C6.0094376 12.081896 5.9003544 12.232688 5.7816458 12.396313C5.6629376 12.559937 5.5362082 12.733188 5.4014583 12.916062C5.2667084 13.098937 5.1351666 13.277 5.0068336 13.45025C4.6988335 13.860917 4.3715835 14.29725 4.0250835 14.75925C3.9609168 14.842667 3.9609168 14.9325 4.0250835 15.02875C4.0700002 15.092916 4.1373749 15.125 4.2272081 15.125L6.1329584 15.125C6.2420416 15.125 6.3318748 15.080083 6.4024582 14.99025L7.6729584 13.18075C7.7050419 13.129416 7.7563748 13.10375 7.8269582 13.10375C7.8911252 13.10375 7.9424582 13.129416 7.9809585 13.18075L9.1263332 14.971C9.1905003 15.073667 9.2835417 15.125 9.4054585 15.125L11.301583 15.125C11.372167 15.125 11.433125 15.099334 11.484458 15.048C11.522959 15.003083 11.543813 14.954958 11.547021 14.903625C11.550229 14.852292 11.535791 14.804167 11.503708 14.75925C11.189292 14.290833 10.890917 13.851292 10.608583 13.440625C10.493083 13.267375 10.374375 13.089313 10.252459 12.906438C10.130542 12.723562 10.015041 12.550312 9.9059582 12.386687C9.796875 12.223063 9.6974163 12.07227 9.607583 11.934313C9.5177498 11.796354 9.4439583 11.682458 9.3862085 11.592625C9.3092079 11.464292 9.3059998 11.339167 9.3765831 11.21725L11.147583 8.2142496C11.179667 8.1693335 11.194104 8.1196041 11.190896 8.0650625C11.187688 8.0105209 11.163625 7.9607916 11.118709 7.915875C11.073792 7.8773751 11.01925 7.8581252 10.955083 7.8581252L9.0108337 7.8581252C8.888917 7.8581252 8.7958746 7.9094582 8.7317085 8.012125L7.9905834 9.2537498C7.9777498 9.2858334 7.9568958 9.3098955 7.928021 9.3259373C7.8991456 9.341979 7.8686666 9.3500004 7.8365831 9.3500004C7.7659998 9.3500004 7.7114582 9.3179169 7.6729584 9.2537498L6.9414582 8.012125C6.8772917 7.9094582 6.7842498 7.8581252 6.6623335 7.8581252ZM15.60075 7.8581252L12.260875 7.8581252C12.171041 7.8581252 12.094042 7.8886042 12.029875 7.9495625C11.965709 8.0105209 11.933625 8.0859165 11.933625 8.1757498L11.933625 14.79775C11.933625 14.887584 11.965709 14.964583 12.029875 15.02875C12.094042 15.092916 12.171041 15.125 12.260875 15.125L13.704625 15.125C13.794458 15.125 13.871458 15.092916 13.935625 15.02875C13.999792 14.964583 14.031875 14.887584 14.031875 14.79775L14.031875 12.98825C14.031875 12.936916 14.04952 12.893604 14.084812 12.858313C14.120104 12.823021 14.163417 12.805375 14.21475 12.805375L15.668125 12.805375C17.407042 12.805375 18.276501 11.968 18.276501 10.29325C18.276501 9.5039997 18.048708 8.9008331 17.593124 8.4837503C17.137541 8.0666666 16.473417 7.8581252 15.60075 7.8581252ZM14.94625 9.6002502C15.13875 9.6002502 15.307187 9.6050625 15.451563 9.6146879C15.595938 9.6243124 15.71625 9.6531878 15.8125 9.7013121C15.90875 9.7494373 15.982542 9.8248329 16.033875 9.9274998C16.085209 10.030167 16.110874 10.171333 16.110874 10.351C16.110874 10.52425 16.085209 10.657395 16.033875 10.750438C15.982542 10.843479 15.907146 10.914062 15.807688 10.962188C15.708229 11.010312 15.586312 11.039187 15.441937 11.048813C15.297563 11.058437 15.132334 11.06325 14.94625 11.06325L14.21475 11.06325C14.163417 11.06325 14.120104 11.045604 14.084812 11.010312C14.04952 10.97502 14.031875 10.931708 14.031875 10.880375L14.031875 9.7831249C14.031875 9.7317915 14.04952 9.6884794 14.084812 9.6531878C14.120104 9.6178961 14.163417 9.6002502 14.21475 9.6002502L14.94625 9.6002502Z"/>
</svg>
